<svg width="608" height="71" viewBox="0 0 608 71" fill="none" xmlns="http://www.w3.org/2000/svg">
<g clip-path="url(#clip0_104_13)">
<path d="M6 3H602L559 43H46L6 3Z" fill="url(#paint0_linear_104_13)"/>
<path d="M0 71H608L559 43H46L0 71Z" fill="url(#paint1_linear_104_13)" fill-opacity="0.17"/>
<path d="M0 62H608L559 43H46L0 62Z" fill="url(#paint2_linear_104_13)" fill-opacity="0.17"/>
<path d="M0 52H608L559 43H46L0 52Z" fill="url(#paint3_linear_104_13)" fill-opacity="0.17"/>
<path d="M7 0H601L602 3H6L7 0Z" fill="#F7F7F7"/>
</g>
<defs>
<linearGradient id="paint0_linear_104_13" x1="303.5" y1="1.5" x2="303.5" y2="49.5" gradientUnits="userSpaceOnUse">
<stop stop-color="#EDEDED"/>
<stop offset="0.485577" stop-color="#DDDDDD"/>
<stop offset="0.8125" stop-color="#E6E6E6"/>
<stop offset="1" stop-color="#A2A2A2"/>
</linearGradient>
<linearGradient id="paint1_linear_104_13" x1="303.5" y1="72.05" x2="303.5" y2="38.45" gradientUnits="userSpaceOnUse">
<stop stop-color="#EDEDED"/>
<stop offset="0.485577" stop-color="#DDDDDD"/>
<stop offset="0.8125" stop-color="#E6E6E6"/>
<stop offset="1" stop-color="#A2A2A2"/>
</linearGradient>
<linearGradient id="paint2_linear_104_13" x1="303.5" y1="62.7125" x2="303.5" y2="39.9125" gradientUnits="userSpaceOnUse">
<stop stop-color="#EDEDED"/>
<stop offset="0.485577" stop-color="#DDDDDD"/>
<stop offset="0.8125" stop-color="#E6E6E6"/>
<stop offset="1" stop-color="#A2A2A2"/>
</linearGradient>
<linearGradient id="paint3_linear_104_13" x1="303.5" y1="52.3375" x2="303.5" y2="41.5375" gradientUnits="userSpaceOnUse">
<stop stop-color="#EDEDED"/>
<stop offset="0.485577" stop-color="#DDDDDD"/>
<stop offset="0.8125" stop-color="#E6E6E6"/>
<stop offset="1" stop-color="#A2A2A2"/>
</linearGradient>
<clipPath id="clip0_104_13">
<rect width="608" height="71" fill="white"/>
</clipPath>
</defs>
</svg>
